<svg width="96" height="96" viewBox="0 0 96 96" fill="none" xmlns="http://www.w3.org/2000/svg">
<g clip-path="url(#clip0_1_2)">
<path d="M51.1444 76.2512C51.9727 76.2514 52.6444 76.9229 52.6444 77.7512V83.3215H54.8915C55.475 83.3215 56.0058 83.6596 56.2519 84.1887C56.4979 84.7177 56.4148 85.3411 56.039 85.7873L49.1474 93.966C48.8624 94.3042 48.4431 94.5001 48.0009 94.5002C47.5586 94.5002 47.1384 94.3043 46.8534 93.966L39.9618 85.7873C39.5862 85.3412 39.503 84.7176 39.7489 84.1887C39.995 83.6596 40.5258 83.3215 41.1093 83.3215H43.3573L43.3554 77.7512C43.3554 77.3535 43.5136 76.9719 43.7948 76.6906C44.0761 76.4094 44.4576 76.2513 44.8554 76.2512H51.1444Z" fill="black" stroke="white" stroke-width="3" stroke-linejoin="round"/>
<path d="M48.0009 1.50018C48.443 1.50026 48.8624 1.6954 49.1474 2.03339L56.039 10.2121C56.4149 10.6583 56.4979 11.2826 56.2519 11.8117C56.0058 12.3407 55.4749 12.6789 54.8915 12.6789H52.6444V18.2492C52.6443 19.0774 51.9726 19.749 51.1444 19.7492H44.8554C44.4576 19.7491 44.0761 19.591 43.7948 19.3098C43.5135 19.0284 43.3553 18.6461 43.3554 18.2482L43.3573 12.6789H41.1093C40.5258 12.6789 39.995 12.3408 39.7489 11.8117C39.5029 11.2826 39.5858 10.6583 39.9618 10.2121L46.8534 2.03339L46.9667 1.91327C47.244 1.64946 47.614 1.50018 48.0009 1.50018Z" fill="black" stroke="white" stroke-width="3" stroke-linejoin="round"/>
<path d="M84.1886 39.748C84.7175 39.5021 85.3411 39.5853 85.7872 39.9609L93.9659 46.8525C94.3042 47.1375 94.5001 47.5577 94.5001 48C94.5 48.4422 94.3041 48.8615 93.9659 49.1465L85.7872 56.0381C85.341 56.4139 84.7176 56.497 84.1886 56.251C83.6595 56.0049 83.3214 55.4741 83.3214 54.8906V52.6435L77.7511 52.6445C77.3533 52.6445 76.9719 52.4863 76.6906 52.2051C76.4093 51.9238 76.2511 51.5423 76.2511 51.1445V44.8564C76.2511 44.028 76.9227 43.3564 77.7511 43.3564H83.3214V41.1084C83.3214 40.5249 83.6595 39.9941 84.1886 39.748Z" fill="black" stroke="white" stroke-width="3" stroke-linejoin="round"/>
<path d="M10.212 39.9609C10.6582 39.5849 11.2825 39.502 11.8116 39.748C12.3407 39.9941 12.6788 40.5249 12.6788 41.1084V43.3564H18.2491C19.0774 43.3565 19.7491 44.0281 19.7491 44.8564V51.1445C19.7491 51.5423 19.5909 51.9238 19.3097 52.2051C19.0283 52.4864 18.646 52.6446 18.2481 52.6445L12.6788 52.6435V54.8906C12.6788 55.474 12.3406 56.0049 11.8116 56.251C11.2825 56.497 10.6582 56.414 10.212 56.0381L2.03329 49.1465C1.69531 48.8615 1.50017 48.4421 1.50009 48C1.50009 47.5577 1.6951 47.1375 2.03329 46.8525L10.212 39.9609Z" fill="black" stroke="white" stroke-width="3" stroke-linejoin="round"/>
<path d="M51.1444 56.2512C51.9727 56.2514 52.6444 56.9229 52.6444 57.7512V63.3215H54.8915C55.475 63.3215 56.0058 63.6596 56.2519 64.1887C56.4979 64.7177 56.4148 65.3411 56.039 65.7873L49.1474 73.966C48.8624 74.3042 48.4431 74.5001 48.0009 74.5002C47.5586 74.5002 47.1384 74.3043 46.8534 73.966L39.9618 65.7873C39.5862 65.3412 39.503 64.7176 39.7489 64.1887C39.995 63.6596 40.5258 63.3215 41.1093 63.3215H43.3573L43.3554 57.7512C43.3554 57.3535 43.5136 56.9719 43.7948 56.6906C44.0761 56.4094 44.4576 56.2513 44.8554 56.2512H51.1444Z" fill="black" stroke="white" stroke-width="3" stroke-linejoin="round"/>
<path d="M48.0009 21.5002C48.443 21.5003 48.8624 21.6954 49.1474 22.0334L56.039 30.2121C56.4149 30.6583 56.4979 31.2826 56.2519 31.8117C56.0058 32.3407 55.4749 32.6789 54.8915 32.6789H52.6444V38.2492C52.6443 39.0774 51.9726 39.749 51.1444 39.7492H44.8554C44.4576 39.7491 44.0761 39.591 43.7948 39.3098C43.5135 39.0284 43.3553 38.6461 43.3554 38.2482L43.3573 32.6789H41.1093C40.5258 32.6789 39.995 32.3408 39.7489 31.8117C39.5029 31.2826 39.5858 30.6583 39.9618 30.2121L46.8534 22.0334L46.9667 21.9133C47.244 21.6495 47.614 21.5002 48.0009 21.5002Z" fill="black" stroke="white" stroke-width="3" stroke-linejoin="round"/>
<path d="M64.1886 39.748C64.7175 39.5021 65.3411 39.5853 65.7872 39.9609L73.9659 46.8525C74.3042 47.1375 74.5001 47.5577 74.5001 48C74.5 48.4422 74.3041 48.8615 73.9659 49.1465L65.7872 56.0381C65.341 56.4139 64.7176 56.497 64.1886 56.251C63.6595 56.0049 63.3214 55.4741 63.3214 54.8906V52.6435L57.7511 52.6445C57.3533 52.6445 56.9719 52.4863 56.6906 52.2051C56.4093 51.9238 56.2511 51.5423 56.2511 51.1445V44.8564C56.2511 44.028 56.9227 43.3564 57.7511 43.3564H63.3214V41.1084C63.3214 40.5249 63.6595 39.9941 64.1886 39.748Z" fill="black" stroke="white" stroke-width="3" stroke-linejoin="round"/>
<path d="M30.212 39.9609C30.6582 39.5849 31.2825 39.502 31.8116 39.748C32.3407 39.9941 32.6788 40.5249 32.6788 41.1084V43.3564H38.2491C39.0774 43.3565 39.7491 44.0281 39.7491 44.8564V51.1445C39.7491 51.5423 39.5909 51.9238 39.3097 52.2051C39.0283 52.4864 38.646 52.6446 38.2481 52.6445L32.6788 52.6435V54.8906C32.6788 55.474 32.3406 56.0049 31.8116 56.251C31.2825 56.497 30.6582 56.414 30.212 56.0381L22.0333 49.1465C21.6953 48.8615 21.5002 48.4421 21.5001 48C21.5001 47.5577 21.6951 47.1375 22.0333 46.8525L30.212 39.9609Z" fill="black" stroke="white" stroke-width="3" stroke-linejoin="round"/>
<path d="M70.1996 65.7535C70.7853 65.1678 71.7349 65.1679 72.3207 65.7535L76.2592 69.691L77.849 68.1022C78.2616 67.6897 78.8761 67.5544 79.4242 67.7545C79.9723 67.9547 80.355 68.4544 80.4047 69.0358L81.3148 79.692C81.3524 80.1326 81.1939 80.5678 80.8812 80.8805C80.5685 81.1932 80.1334 81.3516 79.6928 81.3141L69.0365 80.4039C68.4552 80.3543 67.9554 79.9715 67.7553 79.4235C67.5552 78.8754 67.6905 78.2609 68.1029 77.8483L69.6918 76.2584L65.7533 72.3219C65.4719 72.0406 65.3139 71.6583 65.3139 71.2604C65.3139 70.8626 65.4721 70.4811 65.7533 70.1998L70.1996 65.7535Z" fill="black" stroke="white" stroke-width="3" stroke-linejoin="round"/>
<path d="M16.3086 14.6858L26.9649 15.5959C27.546 15.6457 28.046 16.0276 28.2461 16.5754C28.4462 17.1235 28.31 17.738 27.8975 18.1506L26.3077 19.7395L30.2471 23.6789C30.5283 23.9602 30.6855 24.3418 30.6856 24.7395C30.6856 25.1371 30.5282 25.5188 30.2471 25.8L25.7999 30.2473C25.5185 30.5284 25.137 30.6858 24.7393 30.6858C24.3414 30.6857 23.96 30.5277 23.6788 30.2463L19.7403 26.3069L18.1514 27.8967C17.7388 28.3092 17.1243 28.4454 16.5762 28.2453C16.0284 28.0452 15.6465 27.5452 15.5967 26.9641L14.6866 16.3078C14.6489 15.8671 14.8074 15.4321 15.1202 15.1194C15.4329 14.8066 15.8679 14.6481 16.3086 14.6858Z" fill="black" stroke="white" stroke-width="3" stroke-linejoin="round"/>
<path d="M79.6921 14.686C80.1327 14.6484 80.5679 14.8069 80.8806 15.1196C81.1932 15.4323 81.3518 15.8675 81.3142 16.308L80.404 26.9643C80.3543 27.5456 79.9716 28.0454 79.4236 28.2455C78.8755 28.4457 78.261 28.3095 77.8484 27.8969L76.2585 26.3071L72.322 30.2465C72.0407 30.5279 71.6584 30.6859 71.2605 30.686C70.8628 30.6859 70.4812 30.5287 70.1999 30.2475L65.7536 25.8002C65.168 25.2144 65.1679 24.2649 65.7536 23.6791L69.6921 19.7407L68.1023 18.1508C67.6899 17.7382 67.5545 17.1236 67.7546 16.5756C67.9549 16.0278 68.4547 15.6458 69.0359 15.5961L79.6921 14.686Z" fill="black" stroke="white" stroke-width="3" stroke-linejoin="round"/>
<path d="M23.679 65.7537C24.2648 65.168 25.2143 65.1681 25.8001 65.7537L30.2474 70.2C30.5286 70.4813 30.6858 70.8629 30.6859 71.2606C30.6858 71.6585 30.5278 72.0408 30.2464 72.3221L26.307 76.2586L27.8968 77.8485C28.3094 78.2611 28.4456 78.8756 28.2454 79.4237C28.0453 79.9717 27.5455 80.3544 26.9642 80.4041L16.3079 81.3143C15.8674 81.3519 15.4322 81.1933 15.1195 80.8807C14.8068 80.568 14.6483 80.1328 14.6859 79.6922L15.596 69.036L15.6087 68.9276C15.6936 68.3931 16.0619 67.9424 16.5755 67.7547C17.1235 67.5546 17.7381 67.69 18.1507 68.1024L19.7406 69.6922L23.679 65.7537Z" fill="black" stroke="white" stroke-width="3" stroke-linejoin="round"/>
</g>
<defs>
<clipPath id="clip0_1_2">
<rect width="96" height="96" fill="white"/>
</clipPath>
</defs>
</svg>
